<svg width="16" height="15" viewBox="0 0 16 15" xmlns="http://www.w3.org/2000/svg">
    <path d="M11.072 0c.843 0 1.622.203 2.272.541l.712.361-.578.542-2.636 2.49.962.902 2.656-2.472.578-.541.385.667c.36.61.577 1.34.577 2.13 0 2.557-2.2 4.62-4.928 4.62-.144 0-.341-.021-.52-.037L5.28 14.147c-1.213 1.137-3.157 1.137-4.37 0-1.212-1.136-1.212-2.959 0-4.096l5.274-4.944c-.016-.167-.038-.352-.038-.487 0-2.558 2.2-4.62 4.927-4.62zm0 1.155c-2.076 0-3.695 1.518-3.695 3.465 0 .23 0 .417.038.559l.097.307-5.736 5.377c-.753.706-.758 1.744-.02 2.454l.02.018c.758.71 1.879.71 2.637 0l5.736-5.377.327.09c.151.036.351.036.596.036 2.077 0 3.696-1.518 3.696-3.464 0-.28-.127-.49-.192-.74l-2.772 2.598-.424-.415-1.847-1.732-.443-.397 2.772-2.599c-.267-.06-.491-.18-.79-.18z" fill="#286CE2" fill-rule="evenodd"/>
</svg>
